<?xml version="1.0" encoding="UTF-8" standalone="no"?>
<!DOCTYPE svg PUBLIC "-//W3C//DTD SVG 1.1//EN"
 "http://www.w3.org/Graphics/SVG/1.1/DTD/svg11.dtd">
<!-- Generated by graphviz version 2.47.3 (20210619.1520)
 -->
<!-- Title: dependencies Pages: 1 -->
<svg width="314pt" height="247pt"
 viewBox="0.00 0.00 314.00 246.80" xmlns="http://www.w3.org/2000/svg" xmlns:xlink="http://www.w3.org/1999/xlink">
<g id="graph0" class="graph" transform="scale(1 1) rotate(0) translate(4 242.8)">
<title>dependencies</title>
<polygon fill="white" stroke="transparent" points="-4,4 -4,-242.8 310,-242.8 310,4 -4,4"/>
<text text-anchor="middle" x="153" y="-8.2" font-family="sans-serif" font-size="14.00">dependencies</text>
<g id="clust1" class="cluster">
<title>cluster_AppModule</title>
<polygon fill="none" stroke="black" stroke-dasharray="1,5" points="8,-32.8 8,-230.8 298,-230.8 298,-32.8 8,-32.8"/>
</g>
<g id="clust4" class="cluster">
<title>cluster_AppModule_imports</title>
<polygon fill="none" stroke="black" points="146,-40.8 146,-92.8 290,-92.8 290,-40.8 146,-40.8"/>
</g>
<g id="clust6" class="cluster">
<title>cluster_AppModule_bootstrap</title>
<polygon fill="none" stroke="black" points="86,-170.8 86,-222.8 210,-222.8 210,-170.8 86,-170.8"/>
</g>
<g id="clust2" class="cluster">
<title>cluster_AppModule_declarations</title>
<polygon fill="none" stroke="black" points="16,-40.8 16,-92.8 138,-92.8 138,-40.8 16,-40.8"/>
</g>
<!-- AppComponent -->
<g id="node1" class="node">
<title>AppComponent</title>
<polygon fill="#ffffb3" stroke="black" points="129.94,-84.8 24.06,-84.8 24.06,-48.8 129.94,-48.8 129.94,-84.8"/>
<text text-anchor="middle" x="77" y="-62.6" font-family="Times,serif" font-size="14.00">AppComponent</text>
</g>
<!-- AppModule -->
<g id="node2" class="node">
<title>AppModule</title>
<polygon fill="#8dd3c7" stroke="black" points="189.66,-149.8 186.66,-153.8 165.66,-153.8 162.66,-149.8 106.34,-149.8 106.34,-113.8 189.66,-113.8 189.66,-149.8"/>
<text text-anchor="middle" x="148" y="-127.6" font-family="Times,serif" font-size="14.00">AppModule</text>
</g>
<!-- AppComponent&#45;&gt;AppModule -->
<g id="edge1" class="edge">
<title>AppComponent&#45;&gt;AppModule</title>
<path fill="none" stroke="black" d="M117.95,-84.91C117.95,-84.91 117.95,-103.79 117.95,-103.79"/>
<polygon fill="black" stroke="black" points="114.45,-103.79 117.95,-113.79 121.45,-103.79 114.45,-103.79"/>
</g>
<!-- AppComponent  -->
<g id="node4" class="node">
<title>AppComponent </title>
<polygon fill="#80b1d3" stroke="black" points="202.44,-214.8 93.56,-214.8 93.56,-178.8 202.44,-178.8 202.44,-214.8"/>
<text text-anchor="middle" x="148" y="-192.6" font-family="Times,serif" font-size="14.00">AppComponent </text>
</g>
<!-- AppModule&#45;&gt;AppComponent  -->
<g id="edge3" class="edge">
<title>AppModule&#45;&gt;AppComponent </title>
<path fill="none" stroke="black" stroke-dasharray="1,5" d="M148,-149.91C148,-149.91 148,-168.79 148,-168.79"/>
<polygon fill="black" stroke="black" points="144.5,-168.79 148,-178.79 151.5,-168.79 144.5,-168.79"/>
</g>
<!-- AppRoutingModule -->
<g id="node3" class="node">
<title>AppRoutingModule</title>
<polygon fill="#8dd3c7" stroke="black" points="282.27,-84.8 279.27,-88.8 258.27,-88.8 255.27,-84.8 153.73,-84.8 153.73,-48.8 282.27,-48.8 282.27,-84.8"/>
<text text-anchor="middle" x="218" y="-62.6" font-family="Times,serif" font-size="14.00">AppRoutingModule</text>
</g>
<!-- AppRoutingModule&#45;&gt;AppModule -->
<g id="edge2" class="edge">
<title>AppRoutingModule&#45;&gt;AppModule</title>
<path fill="none" stroke="black" d="M171.72,-84.91C171.72,-84.91 171.72,-103.79 171.72,-103.79"/>
<polygon fill="black" stroke="black" points="168.22,-103.79 171.72,-113.79 175.22,-103.79 168.22,-103.79"/>
</g>
</g>
</svg>
